{
 "cells": [
  {
   "cell_type": "markdown",
   "metadata": {},
   "source": [
    "## basic config"
   ]
  },
  {
   "cell_type": "code",
   "execution_count": 1,
   "metadata": {},
   "outputs": [
    {
     "data": {
      "text/plain": [
       "1"
      ]
     },
     "execution_count": 1,
     "metadata": {},
     "output_type": "execute_result"
    }
   ],
   "source": [
    "import torch\n",
    "torch.cuda.device_count()"
   ]
  },
  {
   "cell_type": "code",
   "execution_count": 21,
   "metadata": {},
   "outputs": [],
   "source": [
    "\n",
    "def align_faces_2(root_path):\n",
    "    import os \n",
    "    current_path = os.getcwd()\n",
    "    temp_path = \"/home/bean/stylegan3-editing\"\n",
    "    os.chdir(temp_path)\n",
    "    command =f\"\"\"python prepare_data/preparing_faces_parallel.py \\\n",
    "                --mode align \\\n",
    "                --root_path  {root_path} \n",
    "                \"\"\"\n",
    "    import subprocess\n",
    "    subprocess.run(command, shell=True)\n",
    "    os.chdir(current_path)"
   ]
  },
  {
   "cell_type": "code",
   "execution_count": 3,
   "metadata": {},
   "outputs": [],
   "source": [
    "# DRAGVIDEO_ROOT_PATH = \"/Ext_4T_SSD/ASHOK/\"\n",
    "DRAGVIDEO_ROOT_PATH = \"/home/bean/\"\n",
    "\n",
    "# keep matching encoder,SG as pairt \n",
    "old = {\"encoder\":  f\"{DRAGVIDEO_ROOT_PATH}DragVideo/DragGAN/_PTI/pretrained_models/e4e_ffhq_encode.pt\",\n",
    "       \"SG\": f\"{DRAGVIDEO_ROOT_PATH}DragVideo/DragGAN/_PTI/pretrained_models/ffhq.pkl\",\n",
    "       \"model_name\":\"stylegan2\",\n",
    "       \"resolution\":1024,\n",
    "       }\n",
    "\n",
    "new = {\"encoder\": f\"{DRAGVIDEO_ROOT_PATH}DragVideo/Data_store/OLD/model_weights/restyle_e4e_ffhq.pt\",\n",
    "         \"SG\":  f\"{DRAGVIDEO_ROOT_PATH}DragVideo/Data_store/OLD/model_weights/stylegan3_3rdtime_weights/stylegan3-r-ffhq-1024_module.pkl\",\n",
    "         \"model_name\":\"stylegan3\",\n",
    "               \"resolution\":1024,\n",
    "         }\n",
    "\n",
    "new_256 = {\"encoder\": f\"{DRAGVIDEO_ROOT_PATH}DragVideo/Data_store/OLD/model_weights/restyle_e4e_ffhq.pt\",\n",
    "         \"SG\":  f\"{DRAGVIDEO_ROOT_PATH}DragVideo/Data_store/OLD/Stylegan3_1_files/stylegan3-r-ffhqu-256x256.pkl\",\n",
    "         \"model_name\":\"stylegan3\",\n",
    "         \"resolution\":256,\n",
    "         }\n",
    "\n",
    "videos = {\n",
    "       \"obama\": f\"{DRAGVIDEO_ROOT_PATH}DragVideo/Data_store/OLD/original_videos/obama.mp4\",\n",
    "       \"man_speaking\": f\"{DRAGVIDEO_ROOT_PATH}DragVideo/Data_store/OLD/original_videos/person_speaking_original.mp4\",\n",
    "       \"rahul\": f\"{DRAGVIDEO_ROOT_PATH}DragVideo/Data_store/OLD/original_videos/rahul.mp4\",\n",
    "       \"alien_girl\": f\"{DRAGVIDEO_ROOT_PATH}DragVideo/Data_store/OLD/original_videos/alien_girl.mp4\",\n",
    "       \"mirrAR\": f\"{DRAGVIDEO_ROOT_PATH}DragVideo/Data_store/OLD/original_videos/mirrAR.mp4\",\n",
    "       \"vsauce_frnd\":f\"{DRAGVIDEO_ROOT_PATH}DragVideo/Data_store/OLD/original_videos/micheal_friendzone.mp4\",\n",
    "       \n",
    "}"
   ]
  },
  {
   "cell_type": "code",
   "execution_count": 4,
   "metadata": {},
   "outputs": [],
   "source": [
    "EXPERIMENT_NAME_POSTFIX = \"vsauce_ffmpeg\"#\"aligned_sg3_&_new_e4e_reconstruction_invstep_200_pti_step_450\"\n",
    "models_set = new\n",
    "Testing =True\n",
    "# --------------------------------  \n",
    "\n",
    "\n",
    "import datetime\n",
    "lazy_config = {\n",
    "    \"EXP_NAME\": str(datetime.datetime.now().strftime(\"%Y-%m-%d_%H-%M-%S\"))+\"_\"+ EXPERIMENT_NAME_POSTFIX,\n",
    "    \"e4e\": models_set['encoder'],\n",
    "    \"stylegan2_ada_ffhq\": models_set['SG'],\n",
    "    \"video_path\":  videos[\"vsauce_frnd\"],\n",
    "    \"model_name\" : models_set['model_name'],\n",
    "    \"n_frames\" : 1,#120,#200,\n",
    "    \"IMAGE_SIZE\": models_set[\"resolution\"],\n",
    "    \"N_STEPS_in_draggan\":  \"150\",\n",
    "    \"editing_function_name\":\"large_eyes\",#\"large_eyes\" # \"make_jaw_wider\" # \"mouth_wide\"\n",
    "    \"fps\": 24,\n",
    "    \n",
    "}\n",
    "\n",
    "env_config = {\n",
    "    \"DragGAN_dir\": f\"{DRAGVIDEO_ROOT_PATH}DragVideo/DragGAN\",\n",
    "    \"Experiment_base_path\":f\"{DRAGVIDEO_ROOT_PATH}DragVideo/Data_store/experiments/\" ,\n",
    "    \"init_exp_dir_shell_path\": f\"{DRAGVIDEO_ROOT_PATH}DragVideo/DragGAN/_PTI/init_datadirs.sh\",\n",
    "    \"dummy_config_path\" : f\"{DRAGVIDEO_ROOT_PATH}DragVideo/DragGAN/_PTI/configs/dummy\",\n",
    "    \n",
    "    \n",
    "}\n",
    "\n",
    "#hyper parameters in PTI\n",
    "\n",
    "hyper_config = {\n",
    "    \"max_pti_steps\": 350,\n",
    "    \"first_inv_steps\":450,\n",
    "    \"max_images_to_invert\": 200,\n",
    "}\n",
    "\n",
    "if Testing: \n",
    "    hyper_config[\"max_pti_steps\"] = 1\n",
    "    hyper_config[\"first_inv_steps\"] = 1\n",
    "    hyper_config[\"max_images_to_invert\"] = 5\n",
    "    lazy_config[\"N_STEPS_in_draggan\"] = '1'\n",
    "    \n",
    "\n",
    "\n",
    "# ----------------------------------------------------------------------------------------------\n",
    "\n",
    "from run_utils import *\n",
    "\n",
    "# create experiment data folder structure\n",
    "Experiment_name = lazy_config[\"EXP_NAME\"]\n",
    "Experiment_base_path = env_config[\"Experiment_base_path\"]\n",
    "Experiment_path = os.path.join(Experiment_base_path, Experiment_name)\n",
    "\n",
    "init_experiment_dir(Experiment_name,Experiment_base_path,shell_script_path=env_config[\"init_exp_dir_shell_path\"])\n",
    "\n",
    "\n",
    "\n",
    "# dummy paths_config overwrites the paths_config.py\n",
    "# dummy_config_path = f\"{DRAGVIDEO_ROOT_PATH}DragVideo/DragGAN/_PTI/configs/dummy'\n",
    "add_dummy_config_from_dict(\"hyperparameters.py\", hyper_config,ROOT_PATH=env_config[\"dummy_config_path\"])\n",
    "\n",
    "# change path configs , hyperparameters \n",
    "paths_config_dict = {\n",
    "    #pretrained models\n",
    "    \"e4e\": lazy_config[\"e4e\"],\n",
    "    \"stylegan2_ada_ffhq\": lazy_config[\"stylegan2_ada_ffhq\"],\n",
    "    \n",
    "    # to store tuned stylegan weights\n",
    "    \"checkpoints_dir\": os.path.join(Experiment_path,'tuned_SG'),\n",
    "    # to store latents\n",
    "    \"embedding_base_dir\": os.path.join(Experiment_path,'latents'),\n",
    "    # aligned / processed images\n",
    "    \"input_data_path\": os.path.join(Experiment_path,'aligned'),\n",
    "     \"quad_values_path\": os.path.join(Experiment_path,'quad_values'),\n",
    "}\n",
    "\n",
    "add_dummy_config_from_dict(\"paths_config.py\", paths_config_dict,ROOT_PATH=env_config[\"dummy_config_path\"])\n",
    "\n",
    "\n",
    "\n",
    "# add all these configs to log.txt\n",
    "# --------------------------------  \n",
    "with open(os.path.join(Experiment_path,'log.txt'), 'a') as f:\n",
    "    import json\n",
    "    f.write(f\"lazy_config: {json.dumps(lazy_config, indent=4)}\\n\")\n",
    "    f.write(f\"env_config: {json.dumps(env_config, indent=4)}\\n\")\n",
    "    f.write(f\"hyper_config: {json.dumps(hyper_config, indent=4)}\\n\")\n",
    "    \n",
    "    \n",
    "\n"
   ]
  },
  {
   "cell_type": "code",
   "execution_count": null,
   "metadata": {},
   "outputs": [],
   "source": [
    "# extract frames from video\n",
    "#==============================================================================\n",
    "\n",
    "from importlib.machinery import SourceFileLoader\n",
    "# imports the module from the given path\n",
    "# video_utils = SourceFileLoader(\"video_utils\",\"../utils_draggan/video_utils.py\").load_module()\n",
    "\n",
    "ffmpeg_utils = SourceFileLoader(\"video_utils\",\"../utils_draggan/ffmpeg_utils.py\").load_module()\n",
    "raw_path = os.path.join(Experiment_path, \"raw\")\n",
    "\n",
    "# video_utils.extract_frames(lazy_config['video_path'], raw_path,n_frames=lazy_config['n_frames'])\n",
    "ffmpeg_utils.ffmpeg.extract_frames(video_path = lazy_config['video_path'],\n",
    "                                      output_frames_dir = raw_path,\n",
    "                                      fps = lazy_config['fps'],\n",
    "                                      first_n_frames = lazy_config['n_frames'],\n",
    ")"
   ]
  },
  {
   "cell_type": "markdown",
   "metadata": {},
   "source": [
    "# start"
   ]
  },
  {
   "cell_type": "code",
   "execution_count": 7,
   "metadata": {},
   "outputs": [],
   "source": [
    "# # # delete this cell \n",
    "# # \"/home/bean/DragVideo/Data_store/man_speaking/aligned\": input_data_path \n",
    "# # \"/home/bean/DragVideo/Data_store/man_speaking/quad_values\", quad_pkl_path\n",
    "\n",
    "# raw_path = \"/home/bean/DragVideo/Data_store/man_speaking/raw\"\n",
    "# pre_process_images(raw_path, IMAGE_SIZE=1024) # o/p: config.input_data_path ,quad pickle dir\n"
   ]
  },
  {
   "cell_type": "code",
   "execution_count": 8,
   "metadata": {},
   "outputs": [
    {
     "name": "stderr",
     "output_type": "stream",
     "text": [
      "100%|██████████| 1/1 [00:01<00:00,  1.01s/it]"
     ]
    },
    {
     "name": "stdout",
     "output_type": "stream",
     "text": [
      "saving aligned images...\n",
      "saving quad values...\n",
      "done!\n"
     ]
    },
    {
     "name": "stderr",
     "output_type": "stream",
     "text": [
      "\n"
     ]
    }
   ],
   "source": [
    "from utils.align_data import pre_process_images\n",
    "pre_process_images(raw_path, IMAGE_SIZE=lazy_config['IMAGE_SIZE']) # o/p: config.input_data_path ,quad pickle dir\n",
    "#\n",
    "# align_faces_2(os.path.join(Experiment_path,'raw'))\n",
    "\n"
   ]
  },
  {
   "cell_type": "code",
   "execution_count": null,
   "metadata": {},
   "outputs": [],
   "source": [
    "from utils.align_data import pre_process_images\n",
    "from scripts.run_pti import run_PTI\n",
    "\n",
    "from run_utils_2 import load_generators,export_updated_pickle\n",
    "from configs import paths_config\n",
    "\n",
    "use_multi_id_training = True\n",
    "model_id = run_PTI(use_wandb=False, use_multi_id_training=use_multi_id_training)\n",
    "\n",
    "generator_type =paths_config.multi_id_model_type if use_multi_id_training else \"__\"\n",
    "old_G, new_G = load_generators(model_id, generator_type)\n",
    "sg_tuned_pkl = export_updated_pickle(new_G,model_id,name = lazy_config[\"model_name\"])\n",
    "\n",
    "# print(sg_tuned_pkl) # 'QBUXQCXZGWET'\n",
    "\n",
    "\n",
    "\n",
    "#get landmarks\n",
    "landmark_path = f\"{DRAGVIDEO_ROOT_PATH}DragVideo/DragGAN/_facial-landmarks-recognition\"\n",
    "os.chdir(landmark_path)\n",
    "print(\"pwd\",os.getcwd())\n",
    "import sys\n",
    "sys.path.append(landmark_path)\n",
    "\n",
    "from main import landmarks, dict_landmarks,show_landmarks,get_landmarks_dir\n",
    "\n",
    "# to store landmarks\n",
    "landmarks_dir =  os.path.join(Experiment_path,'landmarks')\n",
    "processed_images_dir =  os.path.join(Experiment_path,'aligned')\n",
    "\n",
    "# generate landmarks for all images in processed_images_dir\n",
    "get_landmarks_dir(processed_images_dir,landmarks_dir)\n"
   ]
  },
  {
   "cell_type": "markdown",
   "metadata": {},
   "source": [
    "# Runs draggan \n",
    "all the the below cells use only these config values"
   ]
  },
  {
   "cell_type": "code",
   "execution_count": 22,
   "metadata": {},
   "outputs": [],
   "source": [
    "if False:\n",
    "    # just to run draggan seperately\n",
    "    import os \n",
    "    \n",
    "    a = \"/home/bean/DragVideo/Data_store/experiments/_SAVE_vsauce_ffmpeg_untuned_sg\"\n",
    "    b = \"/home/bean/DragVideo/Data_store/OLD/model_weights/stylegan3_3rdtime_weights/stylegan3-r-ffhq-1024_module.pkl\"\n",
    "\n",
    "    Experiment_path = a# f\"/home/bean/DragVideo/Data_store/experiments/{lazy_config['EXP_NAME']}\"\t\n",
    "    sg_tuned_pkl = b #new[\"SG\"]\n",
    "\n",
    "\n",
    "    lazy_config[\"N_STEPS_in_draggan\"]=\"1\"\n",
    "    lazy_config[\"editing_function_name\"]=\"large_eyes\"\n",
    "    lazy_config[\"IMAGE_SIZE\"]=\"1024\"\n"
   ]
  },
  {
   "cell_type": "code",
   "execution_count": null,
   "metadata": {},
   "outputs": [],
   "source": [
    "# clean all data from gpu\n",
    "import torch\n",
    "torch.cuda.empty_cache()\n",
    "\n",
    "os.chdir(env_config[\"DragGAN_dir\"])\n",
    "import subprocess\n",
    "\n",
    "print(f\"sg_tuned_pkl: {sg_tuned_pkl}\")\n",
    "\n",
    "subprocess.call(['python', '_run_dragvideo.py',\n",
    "                 '--Experiment_path', Experiment_path,\n",
    "                 '--N_STEPS',       lazy_config[\"N_STEPS_in_draggan\"],\n",
    "                 '--CHECKPOINT_PATH', sg_tuned_pkl,\n",
    "                 \"--MAX_SIZE\",      str(lazy_config[\"IMAGE_SIZE\"]),\n",
    "                 \"--editing_function_name\",lazy_config[\"editing_function_name\"],\n",
    "])\n",
    "                #  \"--verbose\",       \"False\"])\n"
   ]
  },
  {
   "cell_type": "markdown",
   "metadata": {},
   "source": [
    "# post processing"
   ]
  },
  {
   "cell_type": "code",
   "execution_count": 24,
   "metadata": {},
   "outputs": [
    {
     "data": {
      "text/plain": [
       "'/home/bean/DragVideo/DragGAN'"
      ]
     },
     "execution_count": 24,
     "metadata": {},
     "output_type": "execute_result"
    }
   ],
   "source": [
    "import os\n",
    "from tqdm import tqdm\n",
    "os.getcwd()\n",
    "# import importlib\n",
    "# importlib.reload(ffmpeg_utils)"
   ]
  },
  {
   "cell_type": "code",
   "execution_count": 25,
   "metadata": {},
   "outputs": [],
   "source": [
    "\n",
    "from utils import de_alignment \n",
    "put_back_the_edited_image = de_alignment.put_back_the_edited_image\n"
   ]
  },
  {
   "cell_type": "code",
   "execution_count": 26,
   "metadata": {},
   "outputs": [],
   "source": [
    "def paste_edited_faces_back(dir_path,edited_dir='after_drag',save_dir='after_drag_pasted'):\n",
    "    raw_dir = os.path.join(dir_path,'raw')\n",
    "    edited_dir = os.path.join(dir_path,edited_dir)\n",
    "    quad_dir = os.path.join(dir_path,'quad_values')\n",
    "    save_dir = os.path.join(dir_path,save_dir)\n",
    "    if not os.path.exists(save_dir):\n",
    "        os.makedirs(save_dir)\n",
    "\n",
    "    # get names from edited_dir\n",
    "    names = [name.split('.')[0] for name in os.listdir(edited_dir)]\n",
    "    for name in tqdm(names):\n",
    "        raw_image = os.path.join(raw_dir,name+'.png')\n",
    "        edited_image = os.path.join(edited_dir,name+'.png')\n",
    "        quad_path = os.path.join(quad_dir,name+'.pkl')\n",
    "        save_path = os.path.join(save_dir,name+'.png')\n",
    "        put_back_the_edited_image(raw_image,edited_image,quad_path,save_path=save_path)\n"
   ]
  },
  {
   "cell_type": "code",
   "execution_count": null,
   "metadata": {},
   "outputs": [],
   "source": [
    "paste_edited_faces_back(Experiment_path,edited_dir=\"before_drag\",save_dir=\"before_drag_pasted\")\n",
    "paste_edited_faces_back(Experiment_path,edited_dir=\"after_drag\",save_dir=\"after_drag_pasted\")"
   ]
  },
  {
   "cell_type": "code",
   "execution_count": 32,
   "metadata": {},
   "outputs": [
    {
     "name": "stderr",
     "output_type": "stream",
     "text": [
      "ffmpeg version 4.0.2 Copyright (c) 2000-2018 the FFmpeg developers\n",
      "  built with gcc 4.8.2 (GCC) 20140120 (Red Hat 4.8.2-15)\n",
      "  configuration: --prefix=/home/conda/feedstock_root/build_artifacts/ffmpeg_1539667330082/_h_env_placehold_placehold_placehold_placehold_placehold_placehold_placehold_placehold_placehold_placehold_placehold_placehold_placehold_placehold_placehold_placehold_placehold_placehold_plac --disable-doc --disable-openssl --enable-shared --enable-static --extra-cflags='-Wall -g -m64 -pipe -O3 -march=x86-64 -fPIC' --extra-cxxflags='-Wall -g -m64 -pipe -O3 -march=x86-64 -fPIC' --extra-libs='-lpthread -lm -lz' --enable-zlib --enable-pic --enable-pthreads --enable-gpl --enable-version3 --enable-hardcoded-tables --enable-avresample --enable-libfreetype --enable-gnutls --enable-libx264 --enable-libopenh264\n",
      "  libavutil      56. 14.100 / 56. 14.100\n",
      "  libavcodec     58. 18.100 / 58. 18.100\n",
      "  libavformat    58. 12.100 / 58. 12.100\n",
      "  libavdevice    58.  3.100 / 58.  3.100\n",
      "  libavfilter     7. 16.100 /  7. 16.100\n",
      "  libavresample   4.  0.  0 /  4.  0.  0\n",
      "  libswscale      5.  1.100 /  5.  1.100\n",
      "  libswresample   3.  1.100 /  3.  1.100\n",
      "  libpostproc    55.  1.100 / 55.  1.100\n",
      "Input #0, image2, from './*.png':\n",
      "  Duration: 00:00:05.00, start: 0.000000, bitrate: N/A\n",
      "    Stream #0:0: Video: png, rgb24(pc), 1280x720, 24 fps, 24 tbr, 24 tbn, 24 tbc\n",
      "Stream mapping:\n",
      "  Stream #0:0 -> #0:0 (png (native) -> h264 (libx264))\n",
      "Press [q] to stop, [?] for help\n",
      "[libx264 @ 0x222c480] using cpu capabilities: MMX2 SSE2Fast SSSE3 SSE4.2 AVX FMA3 BMI2 AVX2\n",
      "[libx264 @ 0x222c480] profile High, level 3.1\n",
      "[libx264 @ 0x222c480] 264 - core 152 - H.264/MPEG-4 AVC codec - Copyleft 2003-2017 - http://www.videolan.org/x264.html - options: cabac=1 ref=3 deblock=1:0:0 analyse=0x3:0x113 me=hex subme=7 psy=1 psy_rd=1.00:0.00 mixed_ref=1 me_range=16 chroma_me=1 trellis=1 8x8dct=1 cqm=0 deadzone=21,11 fast_pskip=1 chroma_qp_offset=-2 threads=18 lookahead_threads=3 sliced_threads=0 nr=0 decimate=1 interlaced=0 bluray_compat=0 constrained_intra=0 bframes=3 b_pyramid=2 b_adapt=1 b_bias=0 direct=1 weightb=1 open_gop=0 weightp=2 keyint=250 keyint_min=24 scenecut=40 intra_refresh=0 rc_lookahead=40 rc=crf mbtree=1 crf=23.0 qcomp=0.60 qpmin=0 qpmax=69 qpstep=4 ip_ratio=1.40 aq=1:1.00\n",
      "Output #0, mp4, to '/home/bean/DragVideo/Data_store/experiments/_SAVE_vsauce_ffmpeg_untuned_sg/videos/pre_drag_full.mp4':\n",
      "  Metadata:\n",
      "    encoder         : Lavf58.12.100\n",
      "    Stream #0:0: Video: h264 (libx264) (avc1 / 0x31637661), yuv420p, 1280x720, q=-1--1, 24 fps, 12288 tbn, 24 tbc\n",
      "    Metadata:\n",
      "      encoder         : Lavc58.18.100 libx264\n",
      "    Side data:\n",
      "      cpb: bitrate max/min/avg: 0/0/0 buffer size: 0 vbv_delay: -1\n",
      "frame=  120 fps=0.0 q=-1.0 Lsize=     770kB time=00:00:04.87 bitrate=1294.4kbits/s speed=5.65x    \n",
      "video:768kB audio:0kB subtitle:0kB other streams:0kB global headers:0kB muxing overhead: 0.288366%\n",
      "[libx264 @ 0x222c480] frame I:1     Avg QP:19.39  size: 13371\n",
      "[libx264 @ 0x222c480] frame P:30    Avg QP:21.08  size:  9103\n",
      "[libx264 @ 0x222c480] frame B:89    Avg QP:23.93  size:  5611\n",
      "[libx264 @ 0x222c480] consecutive B-frames:  0.8%  0.0%  2.5% 96.7%\n",
      "[libx264 @ 0x222c480] mb I  I16..4: 18.4% 75.4%  6.2%\n",
      "[libx264 @ 0x222c480] mb P  I16..4:  4.9% 19.5%  1.7%  P16..4: 15.9%  5.6%  1.4%  0.0%  0.0%    skip:51.0%\n",
      "[libx264 @ 0x222c480] mb B  I16..4:  1.4%  3.3%  0.2%  B16..8: 26.2%  5.8%  0.7%  direct: 3.7%  skip:58.8%  L0:52.6% L1:44.4% BI: 3.0%\n",
      "[libx264 @ 0x222c480] 8x8 transform intra:72.1% inter:80.0%\n",
      "[libx264 @ 0x222c480] coded y,uvDC,uvAC intra: 26.3% 28.4% 5.8% inter: 9.0% 10.6% 0.0%\n",
      "[libx264 @ 0x222c480] i16 v,h,dc,p: 47% 24%  7% 22%\n",
      "[libx264 @ 0x222c480] i8 v,h,dc,ddl,ddr,vr,hd,vl,hu: 29% 11% 36%  3%  5%  5%  4%  3%  3%\n",
      "[libx264 @ 0x222c480] i4 v,h,dc,ddl,ddr,vr,hd,vl,hu: 31% 16% 15%  4%  9% 10%  7%  5%  3%\n",
      "[libx264 @ 0x222c480] i8c dc,h,v,p: 74% 10% 11%  5%\n",
      "[libx264 @ 0x222c480] Weighted P-Frames: Y:0.0% UV:0.0%\n",
      "[libx264 @ 0x222c480] ref P L0: 55.1% 11.1% 20.7% 13.1%\n",
      "[libx264 @ 0x222c480] ref B L0: 75.6% 19.0%  5.4%\n",
      "[libx264 @ 0x222c480] ref B L1: 88.5% 11.5%\n",
      "[libx264 @ 0x222c480] kb/s:1257.32\n",
      "ffmpeg version 4.0.2 Copyright (c) 2000-2018 the FFmpeg developers\n",
      "  built with gcc 4.8.2 (GCC) 20140120 (Red Hat 4.8.2-15)\n",
      "  configuration: --prefix=/home/conda/feedstock_root/build_artifacts/ffmpeg_1539667330082/_h_env_placehold_placehold_placehold_placehold_placehold_placehold_placehold_placehold_placehold_placehold_placehold_placehold_placehold_placehold_placehold_placehold_placehold_placehold_plac --disable-doc --disable-openssl --enable-shared --enable-static --extra-cflags='-Wall -g -m64 -pipe -O3 -march=x86-64 -fPIC' --extra-cxxflags='-Wall -g -m64 -pipe -O3 -march=x86-64 -fPIC' --extra-libs='-lpthread -lm -lz' --enable-zlib --enable-pic --enable-pthreads --enable-gpl --enable-version3 --enable-hardcoded-tables --enable-avresample --enable-libfreetype --enable-gnutls --enable-libx264 --enable-libopenh264\n",
      "  libavutil      56. 14.100 / 56. 14.100\n",
      "  libavcodec     58. 18.100 / 58. 18.100\n",
      "  libavformat    58. 12.100 / 58. 12.100\n",
      "  libavdevice    58.  3.100 / 58.  3.100\n",
      "  libavfilter     7. 16.100 /  7. 16.100\n",
      "  libavresample   4.  0.  0 /  4.  0.  0\n",
      "  libswscale      5.  1.100 /  5.  1.100\n",
      "  libswresample   3.  1.100 /  3.  1.100\n",
      "  libpostproc    55.  1.100 / 55.  1.100\n",
      "Input #0, image2, from './*.png':\n",
      "  Duration: 00:00:05.00, start: 0.000000, bitrate: N/A\n",
      "    Stream #0:0: Video: png, rgb24(pc), 1280x720, 24 fps, 24 tbr, 24 tbn, 24 tbc\n",
      "Stream mapping:\n",
      "  Stream #0:0 -> #0:0 (png (native) -> h264 (libx264))\n",
      "Press [q] to stop, [?] for help\n",
      "[libx264 @ 0x16df480] using cpu capabilities: MMX2 SSE2Fast SSSE3 SSE4.2 AVX FMA3 BMI2 AVX2\n",
      "[libx264 @ 0x16df480] profile High, level 3.1\n",
      "[libx264 @ 0x16df480] 264 - core 152 - H.264/MPEG-4 AVC codec - Copyleft 2003-2017 - http://www.videolan.org/x264.html - options: cabac=1 ref=3 deblock=1:0:0 analyse=0x3:0x113 me=hex subme=7 psy=1 psy_rd=1.00:0.00 mixed_ref=1 me_range=16 chroma_me=1 trellis=1 8x8dct=1 cqm=0 deadzone=21,11 fast_pskip=1 chroma_qp_offset=-2 threads=18 lookahead_threads=3 sliced_threads=0 nr=0 decimate=1 interlaced=0 bluray_compat=0 constrained_intra=0 bframes=3 b_pyramid=2 b_adapt=1 b_bias=0 direct=1 weightb=1 open_gop=0 weightp=2 keyint=250 keyint_min=24 scenecut=40 intra_refresh=0 rc_lookahead=40 rc=crf mbtree=1 crf=23.0 qcomp=0.60 qpmin=0 qpmax=69 qpstep=4 ip_ratio=1.40 aq=1:1.00\n",
      "Output #0, mp4, to '/home/bean/DragVideo/Data_store/experiments/_SAVE_vsauce_ffmpeg_untuned_sg/videos/post_drag_full.mp4':\n",
      "  Metadata:\n",
      "    encoder         : Lavf58.12.100\n",
      "    Stream #0:0: Video: h264 (libx264) (avc1 / 0x31637661), yuv420p, 1280x720, q=-1--1, 24 fps, 12288 tbn, 24 tbc\n",
      "    Metadata:\n",
      "      encoder         : Lavc58.18.100 libx264\n",
      "    Side data:\n",
      "      cpb: bitrate max/min/avg: 0/0/0 buffer size: 0 vbv_delay: -1\n",
      "frame=  120 fps=0.0 q=-1.0 Lsize=     770kB time=00:00:04.87 bitrate=1294.4kbits/s speed=5.55x    \n",
      "video:768kB audio:0kB subtitle:0kB other streams:0kB global headers:0kB muxing overhead: 0.288366%\n",
      "[libx264 @ 0x16df480] frame I:1     Avg QP:19.39  size: 13371\n",
      "[libx264 @ 0x16df480] frame P:30    Avg QP:21.08  size:  9103\n",
      "[libx264 @ 0x16df480] frame B:89    Avg QP:23.93  size:  5611\n",
      "[libx264 @ 0x16df480] consecutive B-frames:  0.8%  0.0%  2.5% 96.7%\n",
      "[libx264 @ 0x16df480] mb I  I16..4: 18.4% 75.4%  6.2%\n",
      "[libx264 @ 0x16df480] mb P  I16..4:  4.9% 19.5%  1.7%  P16..4: 15.9%  5.6%  1.4%  0.0%  0.0%    skip:51.0%\n",
      "[libx264 @ 0x16df480] mb B  I16..4:  1.4%  3.3%  0.2%  B16..8: 26.2%  5.8%  0.7%  direct: 3.7%  skip:58.8%  L0:52.6% L1:44.4% BI: 3.0%\n",
      "[libx264 @ 0x16df480] 8x8 transform intra:72.1% inter:80.0%\n",
      "[libx264 @ 0x16df480] coded y,uvDC,uvAC intra: 26.3% 28.4% 5.8% inter: 9.0% 10.6% 0.0%\n",
      "[libx264 @ 0x16df480] i16 v,h,dc,p: 47% 24%  7% 22%\n",
      "[libx264 @ 0x16df480] i8 v,h,dc,ddl,ddr,vr,hd,vl,hu: 29% 11% 36%  3%  5%  5%  4%  3%  3%\n",
      "[libx264 @ 0x16df480] i4 v,h,dc,ddl,ddr,vr,hd,vl,hu: 31% 16% 15%  4%  9% 10%  7%  5%  3%\n",
      "[libx264 @ 0x16df480] i8c dc,h,v,p: 74% 10% 11%  5%\n",
      "[libx264 @ 0x16df480] Weighted P-Frames: Y:0.0% UV:0.0%\n",
      "[libx264 @ 0x16df480] ref P L0: 55.1% 11.1% 20.7% 13.1%\n",
      "[libx264 @ 0x16df480] ref B L0: 75.6% 19.0%  5.4%\n",
      "[libx264 @ 0x16df480] ref B L1: 88.5% 11.5%\n",
      "[libx264 @ 0x16df480] kb/s:1257.32\n"
     ]
    }
   ],
   "source": [
    "# =============================================================================\n",
    "# using ffmpeg to make video\n",
    "# =============================================================================\n",
    "before_drag_pasted_dir = os.path.join(Experiment_path,'before_drag_pasted')\n",
    "after_drag_pasted_dir = os.path.join(Experiment_path,'after_drag_pasted')\n",
    "videos_dir = os.path.join(Experiment_path,'videos')\n",
    "\n",
    "ffmpeg_utils.ffmpeg.make_video(before_drag_pasted_dir,\n",
    "                               video_name=\"pre_drag_full\",\n",
    "                               video_dir=videos_dir,\n",
    "                               fps=lazy_config['fps'],\n",
    "                                 )\n",
    "ffmpeg_utils.ffmpeg.make_video(after_drag_pasted_dir,\n",
    "                                 video_name=\"post_drag_full\",\n",
    "                                    video_dir=videos_dir,\n",
    "                                    fps=lazy_config['fps'],\n",
    "                                    )\n"
   ]
  },
  {
   "cell_type": "code",
   "execution_count": 33,
   "metadata": {},
   "outputs": [
    {
     "name": "stdout",
     "output_type": "stream",
     "text": [
      "/home/bean/DragVideo/Data_store/experiments/_SAVE_vsauce_ffmpeg_untuned_sg/videos/hstack_pre_post_drag_full.mp4\n"
     ]
    },
    {
     "name": "stderr",
     "output_type": "stream",
     "text": [
      "ffmpeg version 4.0.2 Copyright (c) 2000-2018 the FFmpeg developers\n",
      "  built with gcc 4.8.2 (GCC) 20140120 (Red Hat 4.8.2-15)\n",
      "  configuration: --prefix=/home/conda/feedstock_root/build_artifacts/ffmpeg_1539667330082/_h_env_placehold_placehold_placehold_placehold_placehold_placehold_placehold_placehold_placehold_placehold_placehold_placehold_placehold_placehold_placehold_placehold_placehold_placehold_plac --disable-doc --disable-openssl --enable-shared --enable-static --extra-cflags='-Wall -g -m64 -pipe -O3 -march=x86-64 -fPIC' --extra-cxxflags='-Wall -g -m64 -pipe -O3 -march=x86-64 -fPIC' --extra-libs='-lpthread -lm -lz' --enable-zlib --enable-pic --enable-pthreads --enable-gpl --enable-version3 --enable-hardcoded-tables --enable-avresample --enable-libfreetype --enable-gnutls --enable-libx264 --enable-libopenh264\n",
      "  libavutil      56. 14.100 / 56. 14.100\n",
      "  libavcodec     58. 18.100 / 58. 18.100\n",
      "  libavformat    58. 12.100 / 58. 12.100\n",
      "  libavdevice    58.  3.100 / 58.  3.100\n",
      "  libavfilter     7. 16.100 /  7. 16.100\n",
      "  libavresample   4.  0.  0 /  4.  0.  0\n",
      "  libswscale      5.  1.100 /  5.  1.100\n",
      "  libswresample   3.  1.100 /  3.  1.100\n",
      "  libpostproc    55.  1.100 / 55.  1.100\n",
      "Input #0, mov,mp4,m4a,3gp,3g2,mj2, from '/home/bean/DragVideo/Data_store/experiments/_SAVE_vsauce_ffmpeg_untuned_sg/videos/pre_drag_full.mp4':\n",
      "  Metadata:\n",
      "    major_brand     : isom\n",
      "    minor_version   : 512\n",
      "    compatible_brands: isomiso2avc1mp41\n",
      "    encoder         : Lavf58.12.100\n",
      "  Duration: 00:00:05.00, start: 0.000000, bitrate: 1262 kb/s\n",
      "    Stream #0:0(und): Video: h264 (High) (avc1 / 0x31637661), yuv420p, 1280x720, 1258 kb/s, 24 fps, 24 tbr, 12288 tbn, 48 tbc (default)\n",
      "    Metadata:\n",
      "      handler_name    : VideoHandler\n",
      "Input #1, mov,mp4,m4a,3gp,3g2,mj2, from '/home/bean/DragVideo/Data_store/experiments/_SAVE_vsauce_ffmpeg_untuned_sg/videos/post_drag_full.mp4':\n",
      "  Metadata:\n",
      "    major_brand     : isom\n",
      "    minor_version   : 512\n",
      "    compatible_brands: isomiso2avc1mp41\n",
      "    encoder         : Lavf58.12.100\n",
      "  Duration: 00:00:05.00, start: 0.000000, bitrate: 1262 kb/s\n",
      "    Stream #1:0(und): Video: h264 (High) (avc1 / 0x31637661), yuv420p, 1280x720, 1258 kb/s, 24 fps, 24 tbr, 12288 tbn, 48 tbc (default)\n",
      "    Metadata:\n",
      "      handler_name    : VideoHandler\n",
      "Stream mapping:\n",
      "  Stream #0:0 (h264) -> hstack:input0\n",
      "  Stream #1:0 (h264) -> hstack:input1\n",
      "  hstack -> Stream #0:0 (libx264)\n",
      "Press [q] to stop, [?] for help\n",
      "[libx264 @ 0xcd1ec0] using cpu capabilities: MMX2 SSE2Fast SSSE3 SSE4.2 AVX FMA3 BMI2 AVX2\n",
      "[libx264 @ 0xcd1ec0] profile High, level 4.0\n",
      "[libx264 @ 0xcd1ec0] 264 - core 152 - H.264/MPEG-4 AVC codec - Copyleft 2003-2017 - http://www.videolan.org/x264.html - options: cabac=1 ref=3 deblock=1:0:0 analyse=0x3:0x113 me=hex subme=7 psy=1 psy_rd=1.00:0.00 mixed_ref=1 me_range=16 chroma_me=1 trellis=1 8x8dct=1 cqm=0 deadzone=21,11 fast_pskip=1 chroma_qp_offset=-2 threads=18 lookahead_threads=3 sliced_threads=0 nr=0 decimate=1 interlaced=0 bluray_compat=0 constrained_intra=0 bframes=3 b_pyramid=2 b_adapt=1 b_bias=0 direct=1 weightb=1 open_gop=0 weightp=2 keyint=250 keyint_min=24 scenecut=40 intra_refresh=0 rc_lookahead=40 rc=crf mbtree=1 crf=23.0 qcomp=0.60 qpmin=0 qpmax=69 qpstep=4 ip_ratio=1.40 aq=1:1.00\n",
      "Output #0, mp4, to '/home/bean/DragVideo/Data_store/experiments/_SAVE_vsauce_ffmpeg_untuned_sg/videos/hstack_pre_post_drag_full.mp4':\n",
      "  Metadata:\n",
      "    major_brand     : isom\n",
      "    minor_version   : 512\n",
      "    compatible_brands: isomiso2avc1mp41\n",
      "    encoder         : Lavf58.12.100\n",
      "    Stream #0:0: Video: h264 (libx264) (avc1 / 0x31637661), yuv420p, 2560x720, q=-1--1, 24 fps, 12288 tbn, 24 tbc (default)\n",
      "    Metadata:\n",
      "      encoder         : Lavc58.18.100 libx264\n",
      "    Side data:\n",
      "      cpb: bitrate max/min/avg: 0/0/0 buffer size: 0 vbv_delay: -1\n",
      "frame=  120 fps= 83 q=-1.0 Lsize=    1429kB time=00:00:04.87 bitrate=2401.8kbits/s speed=3.37x    \n",
      "video:1427kB audio:0kB subtitle:0kB other streams:0kB global headers:0kB muxing overhead: 0.156298%\n",
      "[libx264 @ 0xcd1ec0] frame I:1     Avg QP:18.78  size: 25396\n",
      "[libx264 @ 0xcd1ec0] frame P:32    Avg QP:21.25  size: 17034\n",
      "[libx264 @ 0xcd1ec0] frame B:87    Avg QP:23.48  size: 10232\n",
      "[libx264 @ 0xcd1ec0] consecutive B-frames:  0.8%  6.7%  2.5% 90.0%\n",
      "[libx264 @ 0xcd1ec0] mb I  I16..4: 11.3% 84.2%  4.4%\n",
      "[libx264 @ 0xcd1ec0] mb P  I16..4:  4.1% 20.4%  1.2%  P16..4: 17.2%  5.5%  1.2%  0.0%  0.0%    skip:50.4%\n",
      "[libx264 @ 0xcd1ec0] mb B  I16..4:  1.4%  3.7%  0.2%  B16..8: 26.4%  5.3%  0.5%  direct: 3.5%  skip:58.9%  L0:52.4% L1:44.6% BI: 3.0%\n",
      "[libx264 @ 0xcd1ec0] 8x8 transform intra:76.2% inter:84.0%\n",
      "[libx264 @ 0xcd1ec0] coded y,uvDC,uvAC intra: 27.0% 32.0% 5.4% inter: 7.5% 10.1% 0.0%\n",
      "[libx264 @ 0xcd1ec0] i16 v,h,dc,p: 44% 24%  8% 24%\n",
      "[libx264 @ 0xcd1ec0] i8 v,h,dc,ddl,ddr,vr,hd,vl,hu: 33% 13% 30%  3%  5%  5%  4%  3%  3%\n",
      "[libx264 @ 0xcd1ec0] i4 v,h,dc,ddl,ddr,vr,hd,vl,hu: 31% 16% 14%  4%  9% 10%  8%  5%  3%\n",
      "[libx264 @ 0xcd1ec0] i8c dc,h,v,p: 72% 12% 12%  5%\n",
      "[libx264 @ 0xcd1ec0] Weighted P-Frames: Y:0.0% UV:0.0%\n",
      "[libx264 @ 0xcd1ec0] ref P L0: 55.5%  9.7% 23.6% 11.2%\n",
      "[libx264 @ 0xcd1ec0] ref B L0: 75.9% 19.6%  4.5%\n",
      "[libx264 @ 0xcd1ec0] ref B L1: 91.6%  8.4%\n",
      "[libx264 @ 0xcd1ec0] kb/s:2337.01\n",
      "ffmpeg version 4.0.2 Copyright (c) 2000-2018 the FFmpeg developers\n",
      "  built with gcc 4.8.2 (GCC) 20140120 (Red Hat 4.8.2-15)\n",
      "  configuration: --prefix=/home/conda/feedstock_root/build_artifacts/ffmpeg_1539667330082/_h_env_placehold_placehold_placehold_placehold_placehold_placehold_placehold_placehold_placehold_placehold_placehold_placehold_placehold_placehold_placehold_placehold_placehold_placehold_plac --disable-doc --disable-openssl --enable-shared --enable-static --extra-cflags='-Wall -g -m64 -pipe -O3 -march=x86-64 -fPIC' --extra-cxxflags='-Wall -g -m64 -pipe -O3 -march=x86-64 -fPIC' --extra-libs='-lpthread -lm -lz' --enable-zlib --enable-pic --enable-pthreads --enable-gpl --enable-version3 --enable-hardcoded-tables --enable-avresample --enable-libfreetype --enable-gnutls --enable-libx264 --enable-libopenh264\n",
      "  libavutil      56. 14.100 / 56. 14.100\n",
      "  libavcodec     58. 18.100 / 58. 18.100\n",
      "  libavformat    58. 12.100 / 58. 12.100\n",
      "  libavdevice    58.  3.100 / 58.  3.100\n",
      "  libavfilter     7. 16.100 /  7. 16.100\n",
      "  libavresample   4.  0.  0 /  4.  0.  0\n",
      "  libswscale      5.  1.100 /  5.  1.100\n",
      "  libswresample   3.  1.100 /  3.  1.100\n",
      "  libpostproc    55.  1.100 / 55.  1.100\n",
      "Input #0, mov,mp4,m4a,3gp,3g2,mj2, from '/home/bean/DragVideo/Data_store/OLD/original_videos/micheal_friendzone.mp4':\n",
      "  Metadata:\n",
      "    major_brand     : isom\n",
      "    minor_version   : 512\n",
      "    compatible_brands: isomiso2avc1mp41\n",
      "    encoder         : Lavf59.27.100\n",
      "  Duration: 00:00:13.08, start: 0.000000, bitrate: 1882 kb/s\n",
      "    Stream #0:0(und): Audio: aac (LC) (mp4a / 0x6134706D), 44100 Hz, stereo, fltp, 134 kb/s (default)\n",
      "    Metadata:\n",
      "      handler_name    : SoundHandler\n",
      "    Stream #0:1(und): Video: h264 (High) (avc1 / 0x31637661), yuv420p(tv, unknown/bt709/bt709), 1280x720 [SAR 1:1 DAR 16:9], 1740 kb/s, 25 fps, 25 tbr, 12800 tbn, 50 tbc (default)\n",
      "    Metadata:\n",
      "      handler_name    : VideoHandler\n",
      "      encoder         : Lavc59.37.100 libx264\n",
      "Input #1, mov,mp4,m4a,3gp,3g2,mj2, from '/home/bean/DragVideo/Data_store/experiments/_SAVE_vsauce_ffmpeg_untuned_sg/videos/post_drag_full.mp4':\n",
      "  Metadata:\n",
      "    major_brand     : isom\n",
      "    minor_version   : 512\n",
      "    compatible_brands: isomiso2avc1mp41\n",
      "    encoder         : Lavf58.12.100\n",
      "  Duration: 00:00:05.00, start: 0.000000, bitrate: 1262 kb/s\n",
      "    Stream #1:0(und): Video: h264 (High) (avc1 / 0x31637661), yuv420p, 1280x720, 1258 kb/s, 24 fps, 24 tbr, 12288 tbn, 48 tbc (default)\n",
      "    Metadata:\n",
      "      handler_name    : VideoHandler\n",
      "Stream mapping:\n",
      "  Stream #0:1 (h264) -> hstack:input0 (graph 0)\n",
      "  Stream #1:0 (h264) -> hstack:input1 (graph 0)\n",
      "  hstack (graph 0) -> Stream #0:0 (libx264)\n",
      "  Stream #0:0 -> #0:1 (aac (native) -> aac (native))\n",
      "Press [q] to stop, [?] for help\n",
      "[libx264 @ 0x178a040] using SAR=1/1\n",
      "[libx264 @ 0x178a040] using cpu capabilities: MMX2 SSE2Fast SSSE3 SSE4.2 AVX FMA3 BMI2 AVX2\n",
      "[libx264 @ 0x178a040] profile High, level 4.0\n",
      "[libx264 @ 0x178a040] 264 - core 152 - H.264/MPEG-4 AVC codec - Copyleft 2003-2017 - http://www.videolan.org/x264.html - options: cabac=1 ref=3 deblock=1:0:0 analyse=0x3:0x113 me=hex subme=7 psy=1 psy_rd=1.00:0.00 mixed_ref=1 me_range=16 chroma_me=1 trellis=1 8x8dct=1 cqm=0 deadzone=21,11 fast_pskip=1 chroma_qp_offset=-2 threads=18 lookahead_threads=3 sliced_threads=0 nr=0 decimate=1 interlaced=0 bluray_compat=0 constrained_intra=0 bframes=3 b_pyramid=2 b_adapt=1 b_bias=0 direct=1 weightb=1 open_gop=0 weightp=2 keyint=250 keyint_min=25 scenecut=40 intra_refresh=0 rc_lookahead=40 rc=crf mbtree=1 crf=23.0 qcomp=0.60 qpmin=0 qpmax=69 qpstep=4 ip_ratio=1.40 aq=1:1.00\n"
     ]
    },
    {
     "name": "stdout",
     "output_type": "stream",
     "text": [
      "/home/bean/DragVideo/Data_store/experiments/_SAVE_vsauce_ffmpeg_untuned_sg/videos/hstack_original_post_drag_full.mp4\n"
     ]
    },
    {
     "name": "stderr",
     "output_type": "stream",
     "text": [
      "Output #0, mp4, to '/home/bean/DragVideo/Data_store/experiments/_SAVE_vsauce_ffmpeg_untuned_sg/videos/hstack_original_post_drag_full.mp4':\n",
      "  Metadata:\n",
      "    major_brand     : isom\n",
      "    minor_version   : 512\n",
      "    compatible_brands: isomiso2avc1mp41\n",
      "    encoder         : Lavf58.12.100\n",
      "    Stream #0:0: Video: h264 (libx264) (avc1 / 0x31637661), yuv420p, 2560x720 [SAR 1:1 DAR 32:9], q=-1--1, 25 fps, 12800 tbn, 25 tbc (default)\n",
      "    Metadata:\n",
      "      encoder         : Lavc58.18.100 libx264\n",
      "    Side data:\n",
      "      cpb: bitrate max/min/avg: 0/0/0 buffer size: 0 vbv_delay: -1\n",
      "    Stream #0:1(und): Audio: aac (LC) (mp4a / 0x6134706D), 44100 Hz, stereo, fltp, 128 kb/s (default)\n",
      "    Metadata:\n",
      "      handler_name    : SoundHandler\n",
      "      encoder         : Lavc58.18.100 aac\n",
      "Past duration 0.958977 too large\n",
      "Past duration 0.999992 too large\n",
      "frame=  127 fps= 81 q=-1.0 Lsize=    1294kB time=00:00:05.45 bitrate=1942.8kbits/s dup=0 drop=112 speed= 3.5x    \n",
      "video:1203kB audio:85kB subtitle:0kB other streams:0kB global headers:0kB muxing overhead: 0.431847%\n",
      "[libx264 @ 0x178a040] frame I:1     Avg QP:17.29  size: 26741\n",
      "[libx264 @ 0x178a040] frame P:33    Avg QP:21.06  size: 15562\n",
      "[libx264 @ 0x178a040] frame B:93    Avg QP:24.36  size:  7432\n",
      "[libx264 @ 0x178a040] consecutive B-frames:  0.8%  3.1%  4.7% 91.3%\n",
      "[libx264 @ 0x178a040] mb I  I16..4: 20.3% 73.9%  5.8%\n",
      "[libx264 @ 0x178a040] mb P  I16..4:  3.5% 15.6%  1.1%  P16..4: 17.4%  5.3%  1.3%  0.0%  0.0%    skip:55.8%\n",
      "[libx264 @ 0x178a040] mb B  I16..4:  0.8%  2.2%  0.1%  B16..8: 25.3%  3.9%  0.3%  direct: 1.8%  skip:65.6%  L0:53.2% L1:44.3% BI: 2.5%\n",
      "[libx264 @ 0x178a040] 8x8 transform intra:75.2% inter:84.5%\n",
      "[libx264 @ 0x178a040] coded y,uvDC,uvAC intra: 28.7% 31.7% 5.8% inter: 5.4% 6.3% 0.0%\n",
      "[libx264 @ 0x178a040] i16 v,h,dc,p: 42% 25%  8% 24%\n",
      "[libx264 @ 0x178a040] i8 v,h,dc,ddl,ddr,vr,hd,vl,hu: 32% 14% 30%  3%  5%  5%  4%  3%  3%\n",
      "[libx264 @ 0x178a040] i4 v,h,dc,ddl,ddr,vr,hd,vl,hu: 30% 18% 13%  4% 10%  9%  8%  5%  3%\n",
      "[libx264 @ 0x178a040] i8c dc,h,v,p: 72% 12% 12%  5%\n",
      "[libx264 @ 0x178a040] Weighted P-Frames: Y:0.0% UV:0.0%\n",
      "[libx264 @ 0x178a040] ref P L0: 60.6% 10.5% 19.6%  9.2%\n",
      "[libx264 @ 0x178a040] ref B L0: 78.5% 17.5%  4.0%\n",
      "[libx264 @ 0x178a040] ref B L1: 92.0%  8.0%\n",
      "[libx264 @ 0x178a040] kb/s:1939.37\n",
      "[aac @ 0x175e240] Qavg: 200.664\n"
     ]
    }
   ],
   "source": [
    "# =============================================================================\n",
    "# hstack videos\n",
    "# =============================================================================\n",
    "\n",
    "video1= os.path.join(videos_dir,\"pre_drag_full.mp4\")\n",
    "video2= os.path.join(videos_dir,\"post_drag_full.mp4\")\n",
    "\n",
    "# pre_post_drag_full\n",
    "ffmpeg_utils.ffmpeg.hstack_videos(video1,\n",
    "                                  video2,\n",
    "                                  output_dir=videos_dir,\n",
    "                                  output_name=\"hstack_pre_post_drag_full\",\n",
    ")\n",
    "\n",
    "# original_post_drag_full\n",
    "ffmpeg_utils.ffmpeg.hstack_videos(lazy_config['video_path'],\n",
    "                                  video2,\n",
    "                                  output_dir=videos_dir,\n",
    "                                  output_name=\"hstack_original_post_drag_full\",\n",
    ")"
   ]
  },
  {
   "cell_type": "code",
   "execution_count": null,
   "metadata": {},
   "outputs": [],
   "source": []
  }
 ],
 "metadata": {
  "kernelspec": {
   "display_name": "stylegan3",
   "language": "python",
   "name": "python3"
  },
  "language_info": {
   "codemirror_mode": {
    "name": "ipython",
    "version": 3
   },
   "file_extension": ".py",
   "mimetype": "text/x-python",
   "name": "python",
   "nbconvert_exporter": "python",
   "pygments_lexer": "ipython3",
   "version": "3.9.17"
  },
  "orig_nbformat": 4
 },
 "nbformat": 4,
 "nbformat_minor": 2
}
